<svg width="42" height="42" viewBox="0 0 42 42" fill="none" xmlns="http://www.w3.org/2000/svg">
<path d="M41.7096 23.4326C40.1832 34.6056 29.8684 42.4083 18.6747 40.8847C7.48106 39.3611 -0.335999 29.0653 1.19041 17.8922C2.71682 6.71918 13.0316 -1.08354 24.2253 0.440057C35.4189 1.91748 43.236 12.2595 41.7096 23.4326Z" fill="white"/>
<path d="M41.7096 23.4326C40.1832 34.6056 29.8684 42.4083 18.6747 40.8847C7.48106 39.3611 -0.335999 29.0653 1.19041 17.8922C2.71682 6.71918 13.0316 -1.08354 24.2253 0.440057C35.4189 1.91748 43.236 12.2595 41.7096 23.4326Z" fill="#E9FDFF"/>
<path opacity="0.4" d="M34.8069 33.1178L39.3861 25.3612L41.4214 24.6226C41.4676 24.3917 39.3398 25.1766 39.3398 25.1766L36.6108 20.1441L37.5359 13.034L39.8949 12.0182C39.8024 11.8335 37.4897 12.8493 37.4897 12.8493L31.4765 8.18621L27.2211 2.5073L29.2101 1.81479C29.1176 1.76862 29.025 1.72243 28.9325 1.72243L27.0361 2.41502L20.3291 1.49157L19.1265 0.429688C19.034 0.429688 18.9415 0.429662 18.8952 0.475832L20.1903 1.63007L14.0847 5.92388L6.54519 8.83258L5.38882 8.04764C5.29631 8.18615 6.40643 8.97109 6.40643 8.97109L5.29629 15.9427L2.28976 22.2217L0.994629 22.0371C0.994629 22.2218 2.28976 22.4064 2.28976 22.4064L5.06507 29.4704L4.13992 31.6865C4.27869 31.8712 5.20383 29.655 5.20383 29.655L11.217 32.1944L18.1089 39.166L17.9701 39.997L13.9922 39.7662C14.1772 39.8585 14.3622 39.9047 14.5473 39.997L18.0164 40.1817L22.3643 41.1513C22.5956 41.1513 22.8269 41.1051 23.0582 41.1051L18.1552 39.997L18.294 39.166L26.7123 34.3181L34.7143 33.3024L35.4544 35.6109C35.5007 35.4262 34.8069 33.1178 34.8069 33.1178ZM37.3509 13.034L36.4258 20.0979L28.47 20.7905L25.5559 13.6803C25.4172 13.588 31.384 8.37086 31.384 8.37086L37.3509 13.034ZM28.2849 20.8828L23.6132 26.8848L16.0737 25.8691L13.2059 18.8052L17.8776 12.8032L25.4172 13.8188L28.2849 20.8828ZM20.2829 1.63007L26.9898 2.55352L31.2452 8.2785L25.2784 13.4957C25.2784 13.6342 17.8314 12.6185 17.8314 12.6185L14.131 5.97002L20.2829 1.63007ZM6.54519 8.92487L14.0384 6.01624L17.7388 12.6646L13.0671 18.6667L5.43512 15.8503L6.54519 8.92487ZM11.1707 31.9174L5.20383 29.378C5.20383 29.3319 2.42852 22.2679 2.42852 22.2679L5.38882 16.035L13.0209 18.8975L15.8887 25.9153C15.7962 25.9153 11.1707 31.9174 11.1707 31.9174ZM18.1089 38.889L11.3094 32.0097L15.8887 26.0538L23.6132 27.1157L26.481 34.0873L18.1089 38.889ZM34.6219 33.0254L26.6661 34.0411L23.8445 27.1157C23.7983 26.931 28.47 20.9751 28.47 20.9751C28.5625 20.9751 36.4721 20.2826 36.4721 20.2826L39.2011 25.3151L37.7672 27.7159L34.6219 33.0254Z" fill="#5FC0DD"/>
<path d="M13.068 18.6663L5.43594 15.85L6.54601 8.92456L14.0393 6.01592L17.7397 12.6643L13.068 18.6663ZM0.949219 22.1291C1.18049 25.5456 2.2906 28.7775 4.04828 31.5938L4.97336 29.3777L2.19805 22.3138L0.949219 22.1291ZM20.3299 1.44511L27.0369 2.36849L28.9333 1.67597C27.4069 1.07577 25.8343 0.660223 24.1229 0.429375C22.4114 0.198527 20.7463 0.198553 19.0811 0.383231L20.3299 1.44511ZM39.387 25.3609L34.8077 33.1174L35.5016 35.3798C38.4619 32.5634 40.5896 28.8236 41.4222 24.576L39.387 25.3609ZM37.3517 13.0337L31.3848 8.41669L25.418 13.6339C25.5567 13.7262 28.4708 20.7902 28.4708 20.7902L36.4266 20.0976L37.3517 13.0337ZM22.3189 41.0586L17.971 40.089L14.5018 39.9044C15.797 40.3661 17.1384 40.6892 18.5723 40.8739C19.8212 41.0586 21.07 41.1048 22.3189 41.0586ZM18.1097 38.8886L26.4818 34.087L23.614 27.1154L15.8895 26.0535L11.3103 32.0093L18.1097 38.8886Z" fill="#5FC0DD"/>
</svg>
