<svg width="49" height="36" viewBox="0 0 49 36" fill="none" xmlns="http://www.w3.org/2000/svg">
<g clip-path="url(#clip0_927_26929)">
<path d="M15.415 22.9134V1.23828H26.567C29.1198 1.23828 31.0569 1.97873 32.3781 3.45964C33.6993 4.94055 34.3599 6.859 34.3599 9.21499C34.3599 10.7408 34.0352 12.0983 33.3858 13.2875C32.7364 14.4767 31.8126 15.4079 30.6146 16.081C29.4165 16.7542 28.0225 17.0907 26.4326 17.0907H21.73V22.9134H15.415ZM21.73 12.2441H24.9882C25.9288 12.2441 26.651 11.9693 27.1548 11.4195C27.6587 10.8698 27.9106 10.1349 27.9106 9.21499C27.9106 8.22772 27.681 7.45922 27.222 6.90949C26.7629 6.35975 26.0743 6.08489 25.1562 6.08489H21.73V12.2441Z" fill="#28A8BA"/>
</g>
<g clip-path="url(#clip1_927_26929)">
<path d="M14.1792 21.6751V0H25.3311C27.884 0 29.821 0.740453 31.1422 2.22136C32.4634 3.70227 33.1241 5.62072 33.1241 7.97671C33.1241 9.50249 32.7994 10.86 32.1499 12.0492C31.5005 13.2384 30.5768 14.1696 29.3788 14.8427C28.1807 15.5159 26.7867 15.8524 25.1968 15.8524H20.4942V21.6751H14.1792ZM20.4942 11.0058H23.7524C24.6929 11.0058 25.4151 10.731 25.919 10.1812C26.4228 9.63151 26.6747 8.89667 26.6747 7.97671C26.6747 6.98944 26.4452 6.22094 25.9861 5.6712C25.5271 5.12147 24.8385 4.84661 23.9203 4.84661H20.4942V11.0058Z" fill="#D728CA"/>
</g>
<g clip-path="url(#clip2_927_26929)">
<path d="M15.1499 22.2942V0.619141H25.7981C28.2838 0.619141 30.1705 1.33155 31.4581 2.75636C32.7457 4.18117 33.3895 6.04914 33.3895 8.36025C33.3895 9.84116 33.076 11.1538 32.449 12.2981C31.822 13.4425 30.9206 14.3344 29.745 14.9739C28.5693 15.6133 27.2089 15.9331 25.6637 15.9331H20.558V22.2942H15.1499ZM20.558 11.7596H24.4545C25.5742 11.7596 26.4251 11.4511 27.0074 10.834C27.5896 10.217 27.8807 9.38118 27.8807 8.32659C27.8807 7.18226 27.612 6.30717 27.0745 5.70135C26.5371 5.09552 25.7197 4.79261 24.6224 4.79261H20.558V11.7596Z" fill="#07090D"/>
</g>
<g clip-path="url(#clip3_927_26929)">
<path d="M4.21394 26.645C5.04795 26.645 5.77222 26.7835 6.38675 27.0606C7.00129 27.3377 7.47536 27.7335 7.80896 28.2481C8.14256 28.7627 8.30936 29.3674 8.30936 30.0623C8.30936 30.7572 8.14256 31.3597 7.80896 31.8699C7.47536 32.3801 7.00129 32.7737 6.38675 33.0508C5.77222 33.3279 5.04795 33.4664 4.21394 33.4664H2.60738V35.881H0V26.645H4.21394ZM4.05592 31.4081C4.59144 31.4081 4.99528 31.2916 5.26743 31.0585C5.53958 30.8254 5.67565 30.4933 5.67565 30.0623C5.67565 29.6313 5.53958 29.297 5.26743 29.0595C4.99528 28.822 4.59144 28.7033 4.05592 28.7033H2.60738V31.4081H4.05592ZM11.9044 29.5873C12.159 29.2618 12.4904 29.0178 12.8986 28.855C13.3068 28.6923 13.7743 28.6109 14.3011 28.6109V30.8671C14.0728 30.8408 13.8841 30.8276 13.7348 30.8276C13.1993 30.8276 12.7801 30.9727 12.4772 31.263C12.1743 31.5533 12.0229 31.9975 12.0229 32.5956V35.881H9.52087V28.7297H11.9044V29.5873ZM18.8442 35.9997C18.0804 35.9997 17.3913 35.8414 16.7768 35.5247C16.1622 35.2081 15.6816 34.7683 15.3348 34.2053C14.988 33.6423 14.8146 33.0046 14.8146 32.2921C14.8146 31.5884 14.988 30.9551 15.3348 30.3922C15.6816 29.8292 16.16 29.3916 16.7702 29.0793C17.3803 28.7671 18.0717 28.6109 18.8442 28.6109C19.6168 28.6109 20.3103 28.7671 20.9248 29.0793C21.5394 29.3916 22.0178 29.827 22.3602 30.3856C22.7026 30.9441 22.8738 31.5796 22.8738 32.2921C22.8738 33.0046 22.7026 33.6423 22.3602 34.2053C22.0178 34.7683 21.5394 35.2081 20.9248 35.5247C20.3103 35.8414 19.6168 35.9997 18.8442 35.9997ZM18.8442 34.0074C19.2832 34.0074 19.6431 33.8557 19.924 33.5522C20.205 33.2487 20.3454 32.8287 20.3454 32.2921C20.3454 31.7644 20.205 31.3509 19.924 31.0519C19.6431 30.7528 19.2832 30.6033 18.8442 30.6033C18.4053 30.6033 18.0453 30.7528 17.7644 31.0519C17.4835 31.3509 17.343 31.7644 17.343 32.2921C17.343 32.8287 17.4835 33.2487 17.7644 33.5522C18.0453 33.8557 18.4053 34.0074 18.8442 34.0074ZM29.1157 26.0908H31.6177V35.881H29.2342V35.1685C28.7689 35.7226 28.071 35.9997 27.1404 35.9997C26.4908 35.9997 25.8982 35.848 25.3627 35.5445C24.8271 35.2411 24.4035 34.8078 24.0919 34.2449C23.7802 33.6819 23.6244 33.031 23.6244 32.2921C23.6244 31.5533 23.7802 30.9045 24.0919 30.346C24.4035 29.7874 24.8271 29.3586 25.3627 29.0595C25.8982 28.7605 26.4908 28.6109 27.1404 28.6109C27.992 28.6109 28.6504 28.8572 29.1157 29.3498V26.0908ZM27.6672 34.0074C28.0973 34.0074 28.4529 33.8557 28.7338 33.5522C29.0147 33.2487 29.1552 32.8287 29.1552 32.2921C29.1552 31.7644 29.0169 31.3509 28.7404 31.0519C28.4639 30.7528 28.1061 30.6033 27.6672 30.6033C27.2282 30.6033 26.8683 30.7528 26.5873 31.0519C26.3064 31.3509 26.1659 31.7644 26.1659 32.2921C26.1659 32.8287 26.3064 33.2487 26.5873 33.5522C26.8683 33.8557 27.2282 34.0074 27.6672 34.0074ZM38.3074 26.0908H40.8094V35.881H38.4259V35.1685C37.9606 35.7226 37.2626 35.9997 36.3321 35.9997C35.6824 35.9997 35.0898 35.848 34.5543 35.5445C34.0188 35.2411 33.5952 34.8078 33.2835 34.2449C32.9719 33.6819 32.8161 33.031 32.8161 32.2921C32.8161 31.5533 32.9719 30.9045 33.2835 30.346C33.5952 29.7874 34.0188 29.3586 34.5543 29.0595C35.0898 28.7605 35.6824 28.6109 36.3321 28.6109C37.1836 28.6109 37.8421 28.8572 38.3074 29.3498V26.0908ZM36.8588 34.0074C37.289 34.0074 37.6445 33.8557 37.9255 33.5522C38.2064 33.2487 38.3469 32.8287 38.3469 32.2921C38.3469 31.7644 38.2086 31.3509 37.932 31.0519C37.6555 30.7528 37.2978 30.6033 36.8588 30.6033C36.4199 30.6033 36.0599 30.7528 35.779 31.0519C35.4981 31.3509 35.3576 31.7644 35.3576 32.2921C35.3576 32.8287 35.4981 33.2487 35.779 33.5522C36.0599 33.8557 36.4199 34.0074 36.8588 34.0074ZM45.0102 35.9997C44.4132 35.9997 43.825 35.9316 43.2456 35.7952C42.6661 35.6589 42.2009 35.4807 41.8497 35.2608L42.6003 33.5456C42.9251 33.7479 43.3114 33.9084 43.7591 34.0272C44.2069 34.1459 44.6502 34.2053 45.0892 34.2053C45.493 34.2053 45.7805 34.1635 45.9517 34.08C46.1229 33.9964 46.2085 33.8754 46.2085 33.7171C46.2085 33.5588 46.1053 33.4466 45.899 33.3807C45.6927 33.3147 45.3657 33.2509 44.918 33.1893C44.3473 33.119 43.8623 33.0266 43.4628 32.9123C43.0634 32.7979 42.7188 32.5868 42.4291 32.2789C42.1394 31.9711 41.9945 31.5401 41.9945 30.9859C41.9945 30.5285 42.1306 30.1217 42.4028 29.7654C42.6749 29.4092 43.0722 29.1277 43.5945 28.921C44.1169 28.7143 44.7424 28.6109 45.4711 28.6109C45.989 28.6109 46.5026 28.6637 47.0118 28.7693C47.521 28.8748 47.9467 29.0243 48.2891 29.2179L47.5385 30.9199C46.9064 30.5681 46.2217 30.3922 45.4842 30.3922C45.0892 30.3922 44.7995 30.4383 44.6151 30.5307C44.4307 30.6231 44.3386 30.744 44.3386 30.8935C44.3386 31.0607 44.4395 31.1772 44.6414 31.2432C44.8433 31.3092 45.177 31.3773 45.6422 31.4477C46.2304 31.5357 46.7177 31.6368 47.104 31.7512C47.4902 31.8655 47.826 32.0744 48.1113 32.3779C48.3967 32.6814 48.5393 33.1058 48.5393 33.6511C48.5393 34.0997 48.4033 34.5022 48.1311 34.8584C47.8589 35.2147 47.4573 35.4939 46.9262 35.6963C46.395 35.8986 45.7564 35.9997 45.0102 35.9997Z" fill="#07090D"/>
</g>
<defs>
<clipPath id="clip0_927_26929">
<rect width="18.9449" height="21.6751" fill="white" transform="translate(15.415 1.23828)"/>
</clipPath>
<clipPath id="clip1_927_26929">
<rect width="18.9449" height="21.6751" fill="white" transform="translate(14.1792)"/>
</clipPath>
<clipPath id="clip2_927_26929">
<rect width="18.2396" height="21.6751" fill="white" transform="translate(15.1499 0.619141)"/>
</clipPath>
<clipPath id="clip3_927_26929">
<rect width="48.5393" height="9.9089" fill="white" transform="translate(0 26.0908)"/>
</clipPath>
</defs>
</svg>
