<svg width="320" height="246" viewBox="0 0 320 246" fill="none" xmlns="http://www.w3.org/2000/svg">
<path d="M102.87 216.54C100.23 216.54 97.7099 216.01 95.8399 214.92L3.77992 161.77C1.92992 160.7 0.919922 159.22 0.919922 157.59C0.919922 155.64 2.37992 153.67 4.92992 152.2L180.51 50.8298C185.28 48.0698 192.54 47.7798 196.68 50.1698L288.74 103.32C290.59 104.39 291.6 105.87 291.6 107.5C291.6 109.45 290.14 111.42 287.59 112.89L112.01 214.26C109.4 215.76 106.05 216.54 102.87 216.54ZM96.0399 214.58C100.07 216.91 107.15 216.61 111.81 213.92L287.39 112.55C289.81 111.15 291.2 109.31 291.2 107.51C291.2 106.03 290.25 104.67 288.54 103.68L196.48 50.5298C192.45 48.1998 185.37 48.4998 180.71 51.1898L5.11992 152.55C2.69992 153.95 1.30992 155.79 1.30992 157.59C1.30992 159.07 2.25992 160.43 3.96992 161.42L96.0399 214.58Z" fill="#42E8E0"/>
<path d="M291.4 82.9498L278.18 85.2298L196.58 38.1198C192.49 35.7598 185.34 36.0498 180.61 38.7798L24.5001 128.91L1.12012 132.94V141.23H1.13013C1.12013 142.74 2.02013 144.19 3.88013 145.26L95.9401 198.41C100.03 200.77 107.18 200.48 111.91 197.75L287.49 96.3798C290.03 94.9098 291.35 93.0398 291.39 91.2498H291.4V82.9498Z" fill="url(#paint0_linear_927_7898)"/>
<path d="M95.9399 190.06L3.87992 136.91C-0.210083 134.55 0.299911 130.42 5.02991 127.69L180.61 26.3098C185.34 23.5798 192.49 23.2798 196.58 25.6498L288.64 78.7998C292.73 81.1598 292.22 85.2898 287.49 88.0198L111.91 189.4C107.18 192.12 100.03 192.42 95.9399 190.06Z" fill="#14161A"/>
<path d="M287.49 88.0198L111.91 189.4C107.18 192.13 100.03 192.43 95.94 190.06L3.88003 136.91C2.24003 135.96 1.35003 134.73 1.16003 133.42C0.910027 135.12 1.79003 136.78 3.88003 137.99L95.94 191.13C100.03 193.49 107.18 193.2 111.91 190.47L287.49 89.0998C290.32 87.4698 291.63 85.3298 291.35 83.3698C291.11 85.0098 289.81 86.6798 287.49 88.0198Z" fill="white"/>
<path opacity="0.51" d="M96.1197 188L7.33968 136.73C3.37968 134.44 3.87968 130.45 8.44968 127.81L180.77 28.3498C185.34 25.7098 192.26 25.4198 196.22 27.7098L285 78.9798C288.96 81.2698 288.46 85.2598 283.89 87.8998L111.57 187.36C107 190 100.08 190.29 96.1197 188Z" fill="#07090D"/>
<path opacity="0.8" d="M102.83 187.53C100.26 187.53 97.8099 187.01 95.9799 185.96L7.19987 134.69C5.37987 133.64 4.37988 132.18 4.37988 130.57C4.37988 128.65 5.80988 126.72 8.30988 125.27L180.63 25.8098C185.27 23.1298 192.34 22.8398 196.37 25.1698L285.15 76.4398C286.97 77.4898 287.97 78.9498 287.97 80.5598C287.97 82.4798 286.54 84.4098 284.04 85.8598L111.72 185.32C109.18 186.78 105.92 187.53 102.83 187.53ZM96.2599 185.46C100.14 187.7 106.94 187.41 111.43 184.82L283.75 85.3598C286.06 84.0198 287.39 82.2698 287.39 80.5598C287.39 79.1598 286.49 77.8798 284.86 76.9298L196.08 25.6598C192.2 23.4198 185.4 23.7098 180.91 26.2998L8.58987 125.76C6.27987 127.1 4.94987 128.85 4.94987 130.56C4.94987 131.96 5.84987 133.24 7.47987 134.19L96.2599 185.46Z" fill="url(#paint1_linear_927_7898)"/>
<g opacity="0.1">
<path opacity="0.5" d="M96.1202 185.71L7.34017 134.44C3.38017 132.15 3.88017 128.16 8.45017 125.52L180.77 26.0598C185.34 23.4198 192.26 23.1298 196.22 25.4198L285 76.6898C288.96 78.9798 288.46 82.9698 283.89 85.6098L111.57 185.07C107 187.71 100.08 188 96.1202 185.71Z" fill="#1D1F23"/>
<mask id="mask0_927_7898" style="mask-type:luminance" maskUnits="userSpaceOnUse" x="4" y="23" width="284" height="165">
<path d="M96.1202 185.71L7.34017 134.44C3.38017 132.15 3.88017 128.16 8.45017 125.52L180.77 26.0598C185.34 23.4198 192.26 23.1298 196.22 25.4198L285 76.6898C288.96 78.9798 288.46 82.9698 283.89 85.6098L111.57 185.07C107 187.71 100.08 188 96.1202 185.71Z" fill="white"/>
</mask>
<g mask="url(#mask0_927_7898)">
<path d="M194.18 166.46C194.18 155.31 186.35 141.75 176.69 136.17C171.85 133.38 167.47 133.12 164.31 134.96L161 136.89L161.96 136.98C160.22 139.11 159.2 142.26 159.2 146.27C159.2 157.42 167.03 170.98 176.69 176.56C180.01 178.48 183.11 179.2 185.75 178.87L185.68 179.76L189.04 177.8C189.05 177.79 189.07 177.78 189.08 177.78L189.22 177.7H189.21C192.29 175.82 194.18 171.94 194.18 166.46Z" fill="#9FFFF8"/>
<path d="M185.716 179.742C192.545 175.798 192.546 163.013 185.717 151.186C178.888 139.358 167.815 132.966 160.986 136.909C154.156 140.853 154.155 153.638 160.984 165.466C167.813 177.293 178.886 183.685 185.716 179.742Z" fill="#42E8E0"/>
</g>
</g>
<path opacity="0.4" d="M266.05 85.1898C264.69 85.9698 262.5 85.9698 261.14 85.1898C259.78 84.4098 259.78 83.1398 261.14 82.3598C262.5 81.5798 264.69 81.5798 266.05 82.3598C267.4 83.1398 267.4 84.4098 266.05 85.1898Z" fill="#24126A"/>
<path opacity="0.4" d="M247.32 71.5398L256.93 77.0898C258.1 77.7698 257.96 78.9498 256.6 79.7298C255.24 80.5098 253.19 80.5998 252.02 79.9198L242.41 74.3698C241.24 73.6898 241.38 72.5098 242.74 71.7298C244.09 70.9498 246.14 70.8698 247.32 71.5398Z" fill="#24126A"/>
<path opacity="0.4" d="M192.52 38.2798L202.13 43.8298C203.3 44.5098 203.16 45.6898 201.8 46.4698C200.44 47.2498 198.4 47.3398 197.22 46.6598L187.61 41.1098C186.44 40.4298 186.58 39.2498 187.94 38.4698C189.29 37.6798 191.34 37.5998 192.52 38.2798Z" fill="#24126A"/>
<path d="M266.05 81.7498C264.69 82.5298 262.5 82.5298 261.14 81.7498C259.78 80.9698 259.78 79.6998 261.14 78.9198C262.5 78.1398 264.69 78.1398 266.05 78.9198C267.41 79.6998 267.4 80.9698 266.05 81.7498Z" fill="#42E8E0"/>
<path d="M247.32 68.0998L256.93 73.6498C258.1 74.3298 257.96 75.5098 256.6 76.2898C255.24 77.0698 253.19 77.1598 252.02 76.4798L242.41 70.9298C241.24 70.2498 241.38 69.0698 242.74 68.2898C244.09 67.5098 246.14 67.4198 247.32 68.0998Z" fill="#42E8E0"/>
<path d="M192.52 34.8298L202.13 40.3798C203.3 41.0598 203.16 42.2398 201.8 43.0198C200.44 43.7998 198.4 43.8898 197.22 43.2098L187.61 37.6598C186.44 36.9798 186.58 35.7998 187.94 35.0198C189.29 34.2398 191.34 34.1598 192.52 34.8298Z" fill="#42E8E0"/>
<g opacity="0.3">
<path d="M319.88 202.83V198.35L318.64 197.66C318.29 199.78 315.8 201.17 313.72 201.46L299.55 209.75L293.36 211.98L273.62 201.79L274.08 201.53C272.39 200.74 271.48 198.94 270.57 197.29L269.24 198.08L268.45 198.3V202.9C268.45 203.78 269.03 204.66 270.19 205.32L289.97 216.74C292.29 218.08 296.05 218.08 298.37 216.74L318.15 205.32C319.29 204.66 319.87 203.8 319.89 202.94C319.89 202.91 319.88 202.87 319.88 202.83Z" fill="url(#paint2_linear_927_7898)"/>
<path opacity="0.3" d="M313.72 201.46L299.55 209.75L294.17 211.69V217.75C295.69 217.75 297.21 217.42 298.37 216.75L318.15 205.33C319.29 204.67 319.87 203.81 319.89 202.95C319.89 202.91 319.89 202.87 319.89 202.83V198.35L318.76 197.72H318.64C318.25 199.8 315.79 201.17 313.72 201.46Z" fill="#0F054C"/>
<path d="M289.97 212.19L270.19 200.77C267.87 199.43 267.87 197.26 270.19 195.92L289.97 184.5C292.29 183.16 296.05 183.16 298.37 184.5L318.15 195.92C320.47 197.26 320.47 199.43 318.15 200.77L298.37 212.19C296.05 213.53 292.28 213.53 289.97 212.19Z" fill="url(#paint3_linear_927_7898)"/>
<g opacity="0.3">
<path d="M289.97 212.19L270.19 200.77C267.87 199.43 267.87 197.26 270.19 195.92L289.97 184.5C292.29 183.16 296.05 183.16 298.37 184.5L318.15 195.92C320.47 197.26 320.47 199.43 318.15 200.77L298.37 212.19C296.05 213.53 292.28 213.53 289.97 212.19Z" fill="#0F054C"/>
</g>
</g>
<path d="M294.17 197.76C292.82 197.76 291.47 197.46 290.44 196.87L270.66 185.45C269.63 184.86 269.07 184.06 269.07 183.2C269.07 182.34 269.64 181.54 270.66 180.95L290.44 169.53C292.5 168.35 295.84 168.34 297.9 169.53L317.68 180.95C318.71 181.54 319.27 182.34 319.27 183.2C319.27 184.06 318.7 184.86 317.68 185.45L297.9 196.87C296.87 197.46 295.52 197.76 294.17 197.76ZM294.17 168.98C292.88 168.98 291.59 169.26 290.61 169.83L270.83 181.25C269.91 181.78 269.41 182.47 269.41 183.2C269.41 183.93 269.91 184.62 270.83 185.15L290.61 196.57C292.57 197.7 295.76 197.7 297.72 196.57L317.5 185.15C318.41 184.62 318.92 183.93 318.92 183.2C318.92 182.47 318.42 181.78 317.5 181.25L297.72 169.83C296.74 169.26 295.45 168.98 294.17 168.98Z" fill="#42E8E0"/>
<path opacity="0.4" d="M319.88 178.81V172.04L318.64 171.35C318.29 173.47 315.8 174.86 313.72 175.15L299.55 183.44L293.36 185.67L273.62 175.48L274.08 175.22C272.39 174.43 271.48 172.63 270.57 170.98L269.24 171.77L268.45 171.99V178.88C268.45 179.76 269.03 180.64 270.19 181.3L289.97 192.72C292.29 194.06 296.05 194.06 298.37 192.72L318.15 181.3C319.29 180.64 319.87 179.78 319.89 178.92C319.89 178.89 319.88 178.85 319.88 178.81Z" fill="#42E8E0"/>
<path d="M319.88 172.79V168.31L318.64 167.62C318.29 169.74 315.8 171.13 313.72 171.42L299.55 179.71L293.36 181.94L273.62 171.75L274.08 171.49C272.39 170.7 271.48 168.9 270.57 167.25L269.24 168.04L268.45 168.26V172.86C268.45 173.74 269.03 174.62 270.19 175.28L289.97 186.7C292.29 188.04 296.05 188.04 298.37 186.7L318.15 175.28C319.29 174.62 319.87 173.76 319.89 172.9C319.89 172.87 319.88 172.83 319.88 172.79Z" fill="url(#paint4_linear_927_7898)"/>
<path opacity="0.3" d="M313.72 171.42L299.55 179.71L294.17 181.65V187.71C295.69 187.71 297.21 187.38 298.37 186.71L318.15 175.29C319.29 174.63 319.87 173.77 319.89 172.91C319.89 172.87 319.89 172.83 319.89 172.79V168.31L318.76 167.68H318.64C318.25 169.76 315.79 171.13 313.72 171.42Z" fill="#0F054C"/>
<path d="M289.97 182.16L270.19 170.74C267.87 169.4 267.87 167.23 270.19 165.89L289.97 154.47C292.29 153.13 296.05 153.13 298.37 154.47L318.15 165.89C320.47 167.23 320.47 169.4 318.15 170.74L298.37 182.16C296.05 183.49 292.28 183.49 289.97 182.16Z" fill="url(#paint5_linear_927_7898)"/>
<path d="M318.15 170.74L298.37 182.16C296.05 183.5 292.29 183.5 289.97 182.16L270.19 170.74C269.15 170.14 268.58 169.38 268.47 168.59C268.33 169.56 268.91 170.55 270.19 171.29L289.97 182.71C292.29 184.05 296.05 184.05 298.37 182.71L318.15 171.29C319.43 170.55 320 169.55 319.87 168.59C319.75 169.37 319.18 170.14 318.15 170.74Z" fill="white"/>
<g opacity="0.3">
<path d="M231.82 229.48V225L230.58 224.31C230.23 226.43 227.74 227.82 225.66 228.11L211.49 236.4L205.3 238.63L185.56 228.44L186.02 228.18C184.33 227.39 183.42 225.59 182.51 223.94L181.18 224.73L180.39 224.95V229.55C180.39 230.43 180.97 231.31 182.13 231.97L201.91 243.39C204.23 244.73 207.99 244.73 210.31 243.39L230.09 231.97C231.23 231.31 231.81 230.45 231.83 229.59C231.82 229.56 231.81 229.52 231.82 229.48Z" fill="url(#paint6_linear_927_7898)"/>
<path opacity="0.3" d="M225.66 228.11L211.49 236.4L206.11 238.34V244.4C207.63 244.4 209.15 244.07 210.31 243.4L230.09 231.98C231.23 231.32 231.81 230.46 231.83 229.6C231.83 229.56 231.83 229.52 231.83 229.48V225L230.7 224.37H230.58C230.18 226.45 227.72 227.82 225.66 228.11Z" fill="#0F054C"/>
<path d="M201.9 238.85L182.12 227.43C179.8 226.09 179.8 223.92 182.12 222.58L201.9 211.16C204.22 209.82 207.98 209.82 210.3 211.16L230.08 222.58C232.4 223.92 232.4 226.09 230.08 227.43L210.3 238.85C207.98 240.18 204.21 240.18 201.9 238.85Z" fill="url(#paint7_linear_927_7898)"/>
<g opacity="0.3">
<path d="M201.9 238.85L182.12 227.43C179.8 226.09 179.8 223.92 182.12 222.58L201.9 211.16C204.22 209.82 207.98 209.82 210.3 211.16L230.08 222.58C232.4 223.92 232.4 226.09 230.08 227.43L210.3 238.85C207.98 240.18 204.21 240.18 201.9 238.85Z" fill="#0F054C"/>
</g>
</g>
<path d="M206.1 222.23C204.75 222.23 203.4 221.93 202.37 221.34L182.59 209.92C181.56 209.33 181 208.53 181 207.67C181 206.81 181.57 206.01 182.59 205.42L202.37 194C204.43 192.81 207.77 192.81 209.83 194L229.61 205.42C230.64 206.01 231.2 206.81 231.2 207.67C231.2 208.53 230.63 209.33 229.61 209.92L209.83 221.34C208.8 221.94 207.45 222.23 206.1 222.23ZM202.54 221.04C204.5 222.17 207.69 222.17 209.65 221.04L229.43 209.62C230.35 209.09 230.85 208.4 230.85 207.67C230.85 206.94 230.35 206.25 229.43 205.72L209.65 194.3C207.69 193.17 204.5 193.17 202.54 194.3L182.76 205.72C181.84 206.25 181.34 206.94 181.34 207.67C181.34 208.4 181.84 209.09 182.76 209.62L202.54 221.04Z" fill="#42E8E0"/>
<path opacity="0.4" d="M231.82 203.29V196.52L230.58 195.83C230.23 197.95 227.74 199.34 225.66 199.63L211.49 207.92L205.3 210.15L185.56 199.96L186.02 199.7C184.33 198.91 183.42 197.11 182.51 195.46L181.18 196.25L180.39 196.47V203.36C180.39 204.24 180.97 205.12 182.13 205.78L201.91 217.2C204.23 218.54 207.99 218.54 210.31 217.2L230.09 205.78C231.23 205.12 231.81 204.26 231.83 203.4C231.82 203.36 231.81 203.32 231.82 203.29Z" fill="#42E8E0"/>
<path d="M231.82 197.26V192.78L230.58 192.09C230.23 194.21 227.74 195.6 225.66 195.89L211.49 204.18L205.3 206.41L185.56 196.22L186.02 195.96C184.33 195.17 183.42 193.37 182.51 191.72L181.18 192.51L180.39 192.73V197.33C180.39 198.21 180.97 199.09 182.13 199.75L201.91 211.17C204.23 212.51 207.99 212.51 210.31 211.17L230.09 199.75C231.23 199.09 231.81 198.23 231.83 197.37C231.82 197.34 231.81 197.3 231.82 197.26Z" fill="url(#paint8_linear_927_7898)"/>
<path opacity="0.3" d="M225.66 195.89L211.49 204.18L206.11 206.12V212.18C207.63 212.18 209.15 211.85 210.31 211.18L230.09 199.76C231.23 199.1 231.81 198.24 231.83 197.38C231.83 197.34 231.83 197.3 231.83 197.26V192.78L230.7 192.15H230.58C230.18 194.23 227.72 195.61 225.66 195.89Z" fill="#0F054C"/>
<path d="M201.9 206.63L182.12 195.21C179.8 193.87 179.8 191.7 182.12 190.36L201.9 178.94C204.22 177.6 207.98 177.6 210.3 178.94L230.08 190.36C232.4 191.7 232.4 193.87 230.08 195.21L210.3 206.63C207.98 207.97 204.21 207.97 201.9 206.63Z" fill="url(#paint9_linear_927_7898)"/>
<path d="M206.1 204.55C204.88 204.55 203.66 204.28 202.73 203.75L187.28 194.83C186.35 194.29 185.84 193.57 185.84 192.78C185.84 192 186.35 191.27 187.28 190.74L202.73 181.82C204.59 180.75 207.61 180.75 209.47 181.82L224.92 190.74C225.85 191.28 226.36 192 226.36 192.79C226.36 193.57 225.85 194.3 224.92 194.83L209.47 203.75C208.54 204.29 207.32 204.55 206.1 204.55ZM202.9 203.45C204.66 204.47 207.53 204.47 209.29 203.45L224.74 194.53C225.56 194.06 226.01 193.44 226.01 192.79C226.01 192.14 225.56 191.52 224.74 191.04L209.29 182.12C207.53 181.1 204.66 181.1 202.9 182.12L187.45 191.04C186.63 191.51 186.18 192.13 186.18 192.78C186.18 193.43 186.63 194.05 187.45 194.52L202.9 203.45Z" fill="#5351AF"/>
<path d="M230.08 195.21L210.3 206.63C207.98 207.97 204.22 207.97 201.9 206.63L182.12 195.21C181.08 194.61 180.51 193.85 180.4 193.06C180.26 194.03 180.84 195.02 182.12 195.76L201.9 207.18C204.22 208.52 207.98 208.52 210.3 207.18L230.08 195.76C231.36 195.02 231.93 194.02 231.8 193.06C231.68 193.85 231.11 194.61 230.08 195.21Z" fill="white"/>
<g opacity="0.3">
<path d="M62.6497 70.4998V66.0198L61.4097 65.3298C61.0597 67.4498 58.5697 68.8398 56.4897 69.1298L42.3197 77.4198L36.1297 79.6498L16.3897 69.4598L16.8497 69.1998C15.1597 68.4098 14.2497 66.6098 13.3397 64.9598L12.0097 65.7498L11.2197 65.9698V70.5698C11.2197 71.4498 11.7997 72.3298 12.9597 72.9898L32.7397 84.4098C35.0597 85.7498 38.8197 85.7498 41.1397 84.4098L60.9197 72.9898C62.0597 72.3298 62.6397 71.4698 62.6597 70.6098C62.6497 70.5698 62.6497 70.5398 62.6497 70.4998Z" fill="url(#paint10_linear_927_7898)"/>
<path opacity="0.3" d="M56.4899 69.1298L42.3199 77.4198L36.9399 79.3598V85.4198C38.4599 85.4198 39.98 85.0898 41.14 84.4198L60.92 72.9998C62.06 72.3398 62.6399 71.4798 62.6599 70.6198C62.6599 70.5798 62.6599 70.5398 62.6599 70.4998V66.0198L61.5299 65.3898H61.4099C61.0099 67.4698 58.5499 68.8398 56.4899 69.1298Z" fill="#0F054C"/>
<path d="M32.73 79.8598L12.95 68.4398C10.63 67.0998 10.63 64.9298 12.95 63.5898L32.73 52.1698C35.05 50.8298 38.81 50.8298 41.13 52.1698L60.91 63.5898C63.23 64.9298 63.23 67.0998 60.91 68.4398L41.13 79.8598C38.82 81.1998 35.05 81.1998 32.73 79.8598Z" fill="url(#paint11_linear_927_7898)"/>
<g opacity="0.3">
<path d="M32.73 79.8598L12.95 68.4398C10.63 67.0998 10.63 64.9298 12.95 63.5898L32.73 52.1698C35.05 50.8298 38.81 50.8298 41.13 52.1698L60.91 63.5898C63.23 64.9298 63.23 67.0998 60.91 68.4398L41.13 79.8598C38.82 81.1998 35.05 81.1998 32.73 79.8598Z" fill="#0F054C"/>
</g>
</g>
<path d="M36.9301 66.1798C35.5801 66.1798 34.2301 65.8798 33.2001 65.2898L13.4201 53.8698C12.3901 53.2798 11.8301 52.4798 11.8301 51.6198C11.8301 50.7598 12.4001 49.9598 13.4201 49.3698L33.2001 37.9498C35.2601 36.7598 38.6001 36.7598 40.6601 37.9498L60.4401 49.3698C61.4701 49.9598 62.0301 50.7598 62.0301 51.6198C62.0301 52.4798 61.4601 53.2798 60.4401 53.8698L40.6601 65.2898C39.6301 65.8798 38.2801 66.1798 36.9301 66.1798ZM36.9301 37.3898C35.6401 37.3898 34.3601 37.6698 33.3701 38.2398L13.5901 49.6598C12.6701 50.1898 12.1701 50.8798 12.1701 51.6098C12.1701 52.3398 12.6701 53.0298 13.5901 53.5598L33.3701 64.9798C35.3301 66.1098 38.5201 66.1098 40.4801 64.9798L60.2601 53.5598C61.1801 53.0298 61.6801 52.3398 61.6801 51.6098C61.6801 50.8798 61.1801 50.1898 60.2601 49.6598L40.4801 38.2398C39.5101 37.6798 38.2201 37.3898 36.9301 37.3898Z" fill="#42E8E0"/>
<path opacity="0.4" d="M62.6497 47.2298V40.4598L61.4097 39.7698C61.0597 41.8898 58.5697 43.2798 56.4897 43.5698L42.3197 51.8598L36.1297 54.0898L16.3897 43.8998L16.8497 43.6398C15.1597 42.8498 14.2497 41.0498 13.3397 39.3998L12.0097 40.1898L11.2197 40.4098V47.2998C11.2197 48.1798 11.7997 49.0598 12.9597 49.7198L32.7397 61.1398C35.0597 62.4798 38.8197 62.4798 41.1397 61.1398L60.9197 49.7198C62.0597 49.0598 62.6397 48.1998 62.6597 47.3398C62.6497 47.3098 62.6497 47.2698 62.6497 47.2298Z" fill="#42E8E0"/>
<path d="M62.65 41.2098V36.7298L61.41 36.0398C61.06 38.1598 58.57 39.5498 56.49 39.8398L42.31 48.1298L36.12 50.3598L16.38 40.1698L16.84 39.9098C15.15 39.1198 14.24 37.3198 13.33 35.6698L12 36.4598L11.21 36.6798V41.2798C11.21 42.1598 11.79 43.0398 12.95 43.6998L32.73 55.1298C35.05 56.4698 38.81 56.4698 41.13 55.1298L60.91 43.7098C62.05 43.0498 62.63 42.1898 62.65 41.3298C62.65 41.2898 62.65 41.2498 62.65 41.2098Z" fill="url(#paint12_linear_927_7898)"/>
<path opacity="0.3" d="M56.4897 39.8398L42.3097 48.1298L36.9297 50.0698V56.1298C38.4497 56.1298 39.9697 55.7998 41.1297 55.1298L60.9097 43.7098C62.0497 43.0498 62.6297 42.1898 62.6497 41.3298C62.6497 41.2898 62.6497 41.2498 62.6497 41.2098V36.7298L61.5197 36.0998H61.3997C61.0097 38.1798 58.5497 39.5498 56.4897 39.8398Z" fill="#0F054C"/>
<path d="M16.8401 39.9098L35.5801 29.0898C36.3201 28.6598 37.5301 28.6598 38.2701 29.0898L56.6901 39.7198L56.4901 39.8398C58.5701 39.5498 61.0601 38.1598 61.4101 36.0398L40.7401 24.5398L34.7301 22.9498L29.8301 25.8298L13.3301 35.6698C14.2401 37.3198 15.1501 39.1198 16.8401 39.9098Z" fill="url(#paint13_linear_927_7898)"/>
<path opacity="0.3" d="M36.9298 23.5398L34.7198 22.9598L29.8198 25.8398L13.3198 35.6798C14.2298 37.3198 15.1398 39.1298 16.8298 39.9198L35.5698 29.0998C35.9398 28.8898 36.4298 28.7798 36.9198 28.7798V23.5398H36.9298Z" fill="#0F054C"/>
<path d="M32.73 50.5698L12.95 39.1498C10.63 37.8098 10.63 35.6398 12.95 34.2998L32.73 22.8798C35.05 21.5398 38.81 21.5398 41.13 22.8798L60.91 34.2998C63.23 35.6398 63.23 37.8098 60.91 39.1498L41.13 50.5698C38.82 51.9098 35.05 51.9098 32.73 50.5698ZM38.2799 24.5298C37.5399 24.0998 36.3299 24.0998 35.5899 24.5298L15.8099 35.9498C15.0699 36.3798 15.0699 37.0698 15.8099 37.4998L35.5899 48.9198C36.3299 49.3498 37.5399 49.3498 38.2799 48.9198L58.0599 37.4998C58.7999 37.0698 58.7999 36.3798 58.0599 35.9498L38.2799 24.5298Z" fill="url(#paint14_linear_927_7898)"/>
<path d="M58.0599 35.9498L38.2799 24.5298C37.5399 24.0998 36.3299 24.0998 35.5899 24.5298L15.8099 35.9498C15.3199 36.2398 15.1499 36.6398 15.3199 37.0098C15.3999 36.8298 15.5699 36.6598 15.8099 36.5098L35.5899 25.0898C36.3299 24.6598 37.5399 24.6598 38.2799 25.0898L58.0599 36.5098C58.3099 36.6498 58.4699 36.8198 58.5499 37.0098C58.7099 36.6398 58.5499 36.2398 58.0599 35.9498Z" fill="white"/>
<path d="M60.9099 39.1498L41.1299 50.5698C38.8099 51.9098 35.0499 51.9098 32.7299 50.5698L12.9499 39.1498C11.9099 38.5498 11.3399 37.7898 11.2299 36.9998C11.0899 37.9698 11.6699 38.9598 12.9499 39.6998L32.7299 51.1298C35.0499 52.4698 38.8099 52.4698 41.1299 51.1298L60.9099 39.7098C62.1899 38.9698 62.7599 37.9698 62.6299 37.0098C62.5199 37.7898 61.9499 38.5598 60.9099 39.1498Z" fill="white"/>
<path d="M33.2899 50.2498L13.5099 38.8298C11.4999 37.6698 11.4999 35.7798 13.5099 34.6198L33.2899 23.1998C35.2999 22.0398 38.5699 22.0398 40.5699 23.1998L60.3499 34.6198C62.3599 35.7798 62.3599 37.6698 60.3499 38.8198L40.5699 50.2398C38.5599 51.4098 35.2999 51.4098 33.2899 50.2498ZM38.8299 24.2098C37.7799 23.5998 36.0699 23.5998 35.0199 24.2098L15.2399 35.6298C14.1899 36.2398 14.1899 37.2198 15.2399 37.8298L35.0199 49.2498C36.0699 49.8598 37.7799 49.8598 38.8299 49.2498L58.6099 37.8298C59.6599 37.2198 59.6599 36.2398 58.6099 35.6298L38.8299 24.2098Z" fill="url(#paint15_linear_927_7898)"/>
<path opacity="0.4" d="M38.2799 24.5298C37.5399 24.0998 36.3299 24.0998 35.5899 24.5298L15.8099 35.9498C15.0699 36.3798 15.0699 37.0698 15.8099 37.4998L35.5899 48.9198C36.3299 49.3498 37.5399 49.3498 38.2799 48.9198L58.0599 37.4998C58.7999 37.0698 58.7999 36.3798 58.0599 35.9498L38.2799 24.5298Z" fill="#42E8E0"/>
<path d="M194.18 92.8898C194.18 81.7398 186.35 68.1798 176.69 62.5998C171.85 59.8098 167.47 59.5498 164.31 61.3898L161 63.3198L161.96 63.4098C160.22 65.5398 159.2 68.6898 159.2 72.6998C159.2 83.8498 167.03 97.4098 176.69 102.99C180.01 104.91 183.11 105.63 185.75 105.3L185.68 106.19L189.04 104.23C189.05 104.22 189.07 104.21 189.08 104.21L189.22 104.13H189.21C192.29 102.25 194.18 98.3798 194.18 92.8898Z" fill="#9FFFF8"/>
<path d="M185.715 106.172C192.544 102.229 192.545 89.4435 185.716 77.6157C178.887 65.7879 167.814 59.3962 160.985 63.3395C154.155 67.2828 154.154 80.0679 160.983 91.8957C167.812 103.724 178.885 110.115 185.715 106.172Z" fill="#42E8E0"/>
<path d="M153.33 44.6998C159.8 35.6198 161.3 20.0298 156.67 9.88979C154.35 4.80979 150.94 2.04979 147.29 1.70979L143.48 1.36978L144.21 1.99979C141.55 2.72979 138.9 4.69979 136.57 7.95979C130.1 17.0398 128.6 32.6298 133.22 42.7698C134.81 46.2598 136.92 48.6498 139.26 49.9098L138.69 50.5898L142.56 50.9398C142.58 50.9398 142.59 50.9398 142.61 50.9398L142.77 50.9498L142.76 50.9398C146.35 51.2198 150.15 49.1598 153.33 44.6998Z" fill="#9FFFF8"/>
<path d="M155.302 27.3466C156.607 13.7514 151.302 2.11914 143.451 1.36517C135.601 0.611213 128.179 11.0211 126.873 24.6162C125.567 38.2114 130.873 49.8437 138.723 50.5977C146.573 51.3516 153.996 40.9417 155.302 27.3466Z" fill="#42E8E0"/>
<g opacity="0.1">
<path d="M159.21 118.11C159.21 106.96 151.38 93.3998 141.72 87.8198C136.88 85.0298 132.5 84.7698 129.34 86.6098L126.03 88.5398L126.99 88.6298C125.25 90.7598 124.23 93.9098 124.23 97.9198C124.23 109.07 132.06 122.63 141.72 128.21C145.04 130.13 148.14 130.85 150.78 130.52L150.71 131.41L154.07 129.45C154.08 129.44 154.1 129.43 154.11 129.43L154.25 129.35H154.24C157.32 127.47 159.21 123.59 159.21 118.11Z" fill="#9FFFF8"/>
<path d="M150.739 131.392C157.568 127.449 157.569 114.664 150.74 102.836C143.911 91.0081 132.838 84.6164 126.009 88.5597C119.179 92.5031 119.178 105.288 126.007 117.116C132.836 128.944 143.909 135.335 150.739 131.392Z" fill="#42E8E0"/>
</g>
<path opacity="0.4" d="M139.51 136.3C127.45 136.3 115.38 133.65 106.2 128.35C97.2701 123.19 92.3501 116.33 92.3501 109.02C92.3501 101.71 97.2701 94.8498 106.2 89.6898C124.57 79.0798 154.45 79.0898 172.82 89.6898C181.75 94.8498 186.67 101.71 186.67 109.02C186.67 116.33 181.75 123.2 172.82 128.35C163.64 133.65 151.58 136.3 139.51 136.3ZM139.51 82.0798C127.51 82.0798 115.51 84.7198 106.37 89.9898C97.5501 95.0798 92.7001 101.84 92.7001 109.02C92.7001 116.2 97.5601 122.96 106.38 128.05C124.65 138.6 154.38 138.6 172.65 128.05C181.47 122.96 186.32 116.2 186.32 109.02C186.32 101.84 181.46 95.0798 172.64 89.9898C163.51 84.7098 151.51 82.0798 139.51 82.0798Z" fill="#42E8E0"/>
<path opacity="0.2" d="M139.51 143.62C124.2 143.62 108.89 140.26 97.2402 133.53C85.9202 126.99 79.6802 118.29 79.6802 109.03C79.6802 99.7698 85.9202 91.0598 97.2402 84.5298C120.55 71.0698 158.47 71.0698 181.78 84.5298C193.1 91.0698 199.34 99.7698 199.34 109.03C199.34 118.29 193.1 127 181.78 133.53C170.13 140.25 154.82 143.62 139.51 143.62ZM139.51 74.7598C124.26 74.7598 109.02 78.1098 97.4102 84.8098C86.2002 91.2798 80.0202 99.8798 80.0202 109.01C80.0202 118.15 86.1902 126.74 97.4102 133.21C120.62 146.61 158.39 146.61 181.6 133.21C192.81 126.74 198.99 118.14 198.99 109.01C198.99 99.8698 192.82 91.2798 181.6 84.8098C170 78.1098 154.76 74.7598 139.51 74.7598Z" fill="#42E8E0"/>
<path d="M139.51 130.54C130 130.54 120.5 128.45 113.26 124.27C106.22 120.2 102.34 114.78 102.34 109.01C102.34 103.24 106.22 97.8198 113.26 93.7498C127.74 85.3898 151.29 85.3898 165.76 93.7498C172.8 97.8198 176.68 103.24 176.68 109.01C176.68 114.78 172.8 120.2 165.76 124.27C158.53 128.45 149.02 130.54 139.51 130.54ZM139.51 87.8398C130.07 87.8398 120.62 89.9198 113.43 94.0698C106.5 98.0698 102.68 103.38 102.68 109.03C102.68 114.68 106.5 119.98 113.43 123.99C127.81 132.29 151.21 132.29 165.59 123.99C172.52 119.99 176.34 114.68 176.34 109.04C176.34 103.4 172.52 98.0898 165.59 94.0798C158.4 89.9098 148.96 87.8398 139.51 87.8398Z" fill="#42E8E0"/>
<mask id="mask1_927_7898" style="mask-type:luminance" maskUnits="userSpaceOnUse" x="112" y="46" width="55" height="75">
<path d="M166.89 113.69L155.9 120.02L112.13 94.7498V46.1498L166.89 77.7698V113.69Z" fill="white"/>
</mask>
<g mask="url(#mask1_927_7898)">
<path d="M159.21 118.11C159.21 106.96 151.38 93.3998 141.72 87.8198C136.88 85.0298 132.5 84.7698 129.34 86.6098L126.03 88.5398L126.99 88.6298C125.25 90.7598 124.23 93.9098 124.23 97.9198C124.23 109.07 132.06 122.63 141.72 128.21C145.04 130.13 148.14 130.85 150.78 130.52L150.71 131.41L154.07 129.45C154.08 129.44 154.1 129.43 154.11 129.43L154.25 129.35H154.24C157.32 127.47 159.21 123.59 159.21 118.11Z" fill="#9FFFF8"/>
<path d="M150.739 131.392C157.568 127.449 157.569 114.664 150.74 102.836C143.911 91.0081 132.838 84.6164 126.009 88.5597C119.179 92.5031 119.178 105.288 126.007 117.116C132.836 128.944 143.909 135.335 150.739 131.392Z" fill="#42E8E0"/>
</g>
<path opacity="0.4" d="M92.55 166.35L37.63 134.64C36.01 133.7 36.01 131.37 37.63 130.43L46.01 125.55C48.81 123.93 52.27 123.93 55.07 125.55L109.99 157.26C111.61 158.2 111.61 160.53 109.99 161.47L101.61 166.35C98.8 167.97 95.35 167.97 92.55 166.35Z" fill="#212327"/>
<path d="M65.06 133.94L56.27 128.86L58.01 127.85L66.8 132.93L65.06 133.94Z" fill="#42E8E0"/>
<path d="M89.8401 148.6L87.1401 147.04L88.8801 146.03L91.5801 147.59L89.8401 148.6Z" fill="#42E8E0"/>
<path d="M70.1502 136.96L67.4502 135.4L69.2002 134.39L71.9002 135.95L70.1502 136.96Z" fill="#42E8E0"/>
<path d="M97.0802 160.03C95.4802 160.03 93.8802 159.62 92.4502 158.79L37.5302 127.08C36.7102 126.6 36.2202 125.75 36.2202 124.8C36.2202 123.85 36.7102 123 37.5302 122.52L45.9102 117.64C48.7702 115.99 52.3102 115.99 55.1702 117.64L110.09 149.35C110.91 149.82 111.4 150.68 111.4 151.63C111.4 152.58 110.91 153.43 110.09 153.91L101.71 158.79C100.28 159.62 98.6802 160.03 97.0802 160.03ZM50.5402 116.81C49.0102 116.81 47.4802 117.2 46.1102 117.99L37.7302 122.87C37.0302 123.27 36.6102 124 36.6102 124.8C36.6102 125.61 37.0302 126.33 37.7302 126.73L92.6502 158.44C95.3802 160.02 98.7802 160.02 101.51 158.44L109.89 153.56C110.59 153.16 111.01 152.44 111.01 151.63C111.01 150.82 110.59 150.1 109.89 149.7L54.9702 117.99C53.6102 117.21 52.0802 116.81 50.5402 116.81Z" fill="#42E8E0"/>
<defs>
<linearGradient id="paint0_linear_927_7898" x1="1.11382" y1="118.257" x2="291.403" y2="118.257" gradientUnits="userSpaceOnUse">
<stop stop-color="white"/>
<stop offset="0.151" stop-color="#555555"/>
<stop offset="0.3866" stop-color="#4C4C4C"/>
<stop offset="0.6124" stop-color="#232323"/>
<stop offset="0.8221"/>
<stop offset="1"/>
</linearGradient>
<linearGradient id="paint1_linear_927_7898" x1="186.691" y1="159.325" x2="105.659" y2="51.7925" gradientUnits="userSpaceOnUse">
<stop stop-color="#42E8E0"/>
<stop offset="0.1055" stop-color="#37B6BF"/>
<stop offset="0.2197" stop-color="#2C87A1"/>
<stop offset="0.338" stop-color="#235F87"/>
<stop offset="0.4587" stop-color="#1C3F72"/>
<stop offset="0.5824" stop-color="#162561"/>
<stop offset="0.7105" stop-color="#121355"/>
<stop offset="0.8458" stop-color="#10084E"/>
<stop offset="1" stop-color="#0F054C"/>
</linearGradient>
<linearGradient id="paint2_linear_927_7898" x1="273.566" y1="189.443" x2="314.376" y2="213.004" gradientUnits="userSpaceOnUse">
<stop stop-color="#BCBEFF"/>
<stop offset="0.2271" stop-color="#AAADF8"/>
<stop offset="0.6802" stop-color="#7C83E5"/>
<stop offset="1" stop-color="#5761D7"/>
</linearGradient>
<linearGradient id="paint3_linear_927_7898" x1="268.449" y1="198.349" x2="319.885" y2="198.349" gradientUnits="userSpaceOnUse">
<stop stop-color="#E9E9FD"/>
<stop offset="0.3601" stop-color="#D3D2F9"/>
<stop offset="0.7062" stop-color="#C5C4F7"/>
<stop offset="1" stop-color="#C0BFF6"/>
</linearGradient>
<linearGradient id="paint4_linear_927_7898" x1="273.566" y1="159.404" x2="314.376" y2="182.966" gradientUnits="userSpaceOnUse">
<stop stop-color="#BCBEFF"/>
<stop offset="0.2271" stop-color="#AAADF8"/>
<stop offset="0.6802" stop-color="#7C83E5"/>
<stop offset="1" stop-color="#5761D7"/>
</linearGradient>
<linearGradient id="paint5_linear_927_7898" x1="268.449" y1="168.311" x2="319.885" y2="168.311" gradientUnits="userSpaceOnUse">
<stop stop-color="#E9E9FD"/>
<stop offset="0.3601" stop-color="#D3D2F9"/>
<stop offset="0.7062" stop-color="#C5C4F7"/>
<stop offset="1" stop-color="#C0BFF6"/>
</linearGradient>
<linearGradient id="paint6_linear_927_7898" x1="185.497" y1="216.095" x2="226.307" y2="239.656" gradientUnits="userSpaceOnUse">
<stop stop-color="#BCBEFF"/>
<stop offset="0.2271" stop-color="#AAADF8"/>
<stop offset="0.6802" stop-color="#7C83E5"/>
<stop offset="1" stop-color="#5761D7"/>
</linearGradient>
<linearGradient id="paint7_linear_927_7898" x1="180.38" y1="225.001" x2="231.816" y2="225.001" gradientUnits="userSpaceOnUse">
<stop stop-color="#E9E9FD"/>
<stop offset="0.3601" stop-color="#D3D2F9"/>
<stop offset="0.7062" stop-color="#C5C4F7"/>
<stop offset="1" stop-color="#C0BFF6"/>
</linearGradient>
<linearGradient id="paint8_linear_927_7898" x1="185.497" y1="183.876" x2="226.307" y2="207.438" gradientUnits="userSpaceOnUse">
<stop stop-color="#BCBEFF"/>
<stop offset="0.2271" stop-color="#AAADF8"/>
<stop offset="0.6802" stop-color="#7C83E5"/>
<stop offset="1" stop-color="#5761D7"/>
</linearGradient>
<linearGradient id="paint9_linear_927_7898" x1="180.38" y1="192.783" x2="231.816" y2="192.783" gradientUnits="userSpaceOnUse">
<stop stop-color="#E9E9FD"/>
<stop offset="0.3601" stop-color="#D3D2F9"/>
<stop offset="0.7062" stop-color="#C5C4F7"/>
<stop offset="1" stop-color="#C0BFF6"/>
</linearGradient>
<linearGradient id="paint10_linear_927_7898" x1="16.3299" y1="57.1097" x2="57.1397" y2="80.6712" gradientUnits="userSpaceOnUse">
<stop stop-color="#BCBEFF"/>
<stop offset="0.2271" stop-color="#AAADF8"/>
<stop offset="0.6802" stop-color="#7C83E5"/>
<stop offset="1" stop-color="#5761D7"/>
</linearGradient>
<linearGradient id="paint11_linear_927_7898" x1="11.2131" y1="66.0159" x2="62.6486" y2="66.0159" gradientUnits="userSpaceOnUse">
<stop stop-color="#E9E9FD"/>
<stop offset="0.3601" stop-color="#D3D2F9"/>
<stop offset="0.7062" stop-color="#C5C4F7"/>
<stop offset="1" stop-color="#C0BFF6"/>
</linearGradient>
<linearGradient id="paint12_linear_927_7898" x1="16.3303" y1="27.8227" x2="57.14" y2="51.3842" gradientUnits="userSpaceOnUse">
<stop stop-color="#BCBEFF"/>
<stop offset="0.2271" stop-color="#AAADF8"/>
<stop offset="0.6802" stop-color="#7C83E5"/>
<stop offset="1" stop-color="#5761D7"/>
</linearGradient>
<linearGradient id="paint13_linear_927_7898" x1="18.7795" y1="26.236" x2="55.1737" y2="47.2482" gradientUnits="userSpaceOnUse">
<stop offset="0.2421" stop-color="#5761D7"/>
<stop offset="0.3923" stop-color="#7A82E5"/>
<stop offset="0.5463" stop-color="#979CF0"/>
<stop offset="0.7" stop-color="#ACAFF8"/>
<stop offset="0.8519" stop-color="#B8BAFD"/>
<stop offset="1" stop-color="#BCBEFF"/>
</linearGradient>
<linearGradient id="paint14_linear_927_7898" x1="11.2131" y1="36.7289" x2="62.6486" y2="36.7289" gradientUnits="userSpaceOnUse">
<stop stop-color="#E9E9FD"/>
<stop offset="0.3601" stop-color="#D3D2F9"/>
<stop offset="0.7062" stop-color="#C5C4F7"/>
<stop offset="1" stop-color="#C0BFF6"/>
</linearGradient>
<linearGradient id="paint15_linear_927_7898" x1="12.0026" y1="36.7289" x2="61.8589" y2="36.7289" gradientUnits="userSpaceOnUse">
<stop stop-color="#E9E9FD"/>
<stop offset="0.3601" stop-color="#D3D2F9"/>
<stop offset="0.7062" stop-color="#C5C4F7"/>
<stop offset="1" stop-color="#C0BFF6"/>
</linearGradient>
</defs>
</svg>
